
<svg width="30" height="30" viewBox="0 0 30 30" fill="none" xmlns="http://www.w3.org/2000/svg">
<path d="M24.2692 25.9467C23.7559 25.9472 23.2516 25.8125 22.8071 25.5559C22.3625 25.2994 21.9935 24.9303 21.7371 24.4856L12.4706 8.43531C12.0869 7.76473 11.9846 6.96945 12.186 6.22359C12.3874 5.47773 12.8762 4.84206 13.5452 4.45575C14.2143 4.06945 15.0091 3.96398 15.7558 4.16243C16.5024 4.36089 17.14 4.8471 17.529 5.51463L26.7956 21.5646C27.0516 22.0085 27.1864 22.5119 27.1864 23.0243C27.1864 23.5367 27.0517 24.0401 26.7958 24.484C26.5399 24.9279 26.1717 25.2967 25.7282 25.5534C25.2848 25.8101 24.7816 25.9459 24.2692 25.9467Z" stroke="#94A0B7" stroke-width="2" stroke-miterlimit="10"/>
<path d="M13.5394 25.9459H5.73319C4.95857 25.9459 4.21568 25.6382 3.66795 25.0905C3.12021 24.5427 2.8125 23.7999 2.8125 23.0252C2.8125 22.2506 3.12021 21.5077 3.66795 20.96C4.21568 20.4123 4.95857 20.1046 5.73319 20.1046H13.5394C14.3141 20.1046 15.0569 20.4123 15.6047 20.96C16.1524 21.5077 16.4601 22.2506 16.4601 23.0252C16.4601 23.7999 16.1524 24.5427 15.6047 25.0905C15.0569 25.6382 14.3141 25.9459 13.5394 25.9459Z" stroke="#94A0B7" stroke-width="2" stroke-miterlimit="10"/>
<path d="M5.73081 25.9467C5.21841 25.9459 4.71524 25.8103 4.27177 25.5536C3.8283 25.2969 3.46013 24.9281 3.2042 24.4842C2.94826 24.0403 2.81356 23.5369 2.8136 23.0245C2.81364 22.5121 2.94843 22.0088 3.20443 21.5649L12.471 5.51489C12.6619 5.18114 12.9169 4.88838 13.2213 4.65341C13.5256 4.41844 13.8734 4.24589 14.2446 4.14564C14.6158 4.0454 15.0032 4.01945 15.3844 4.06927C15.7657 4.11909 16.1334 4.24371 16.4664 4.43597C16.7993 4.62823 17.0911 4.88436 17.3249 5.18965C17.5586 5.49494 17.7298 5.84338 17.8286 6.21499C17.9273 6.58659 17.9518 6.97404 17.9004 7.35511C17.8491 7.73617 17.723 8.10335 17.5294 8.43558L8.26287 24.4856C8.00647 24.9302 7.6374 25.2994 7.19287 25.5559C6.74834 25.8124 6.24404 25.9472 5.73081 25.9467Z" stroke="#94A0B7" stroke-width="2" stroke-miterlimit="10"/>
</svg>
